<?xml version="1.0" encoding="utf-8"?>
<!DOCTYPE svg PUBLIC "-//W3C//DTD SVG 1.1//EN" "http://www.w3.org/Graphics/SVG/1.1/DTD/svg11.dtd">
<svg style="width:20px;height:20px;" version="1.1" id="图形" xmlns="http://www.w3.org/2000/svg" xmlns:xlink="http://www.w3.org/1999/xlink" x="0px" y="0px" width="20px" height="20px" viewBox="0 0 1024 1024" enable-background="new 0 0 1024 1024" xml:space="preserve">
  <path class="svgpath" data-index="path_0" fill="#a9b7b7" d="M693.706971 9.142857 331.243886 9.142857c-52.737829 0-96.583314 43.600457-96.583314 96.285257l0 813.109029c0 52.964571 43.845486 96.32 96.583314 96.32l362.463086 0c52.756114 0 96.6016-43.355429 96.6016-96.32L790.308571 105.428114C790.308571 52.743314 746.463086 9.142857 693.706971 9.142857zM461.010286 61.494857l104.001829 0c4.805486 0 8.661943 3.876571 8.661943 8.663771 0 4.770743-3.856457 8.663771-8.661943 8.663771l-104.001829 0c-4.770743 0-8.663771-3.893029-8.663771-8.663771C452.344686 65.371429 456.239543 61.494857 461.010286 61.494857zM512.010971 977.325714c-18.205257 0-34.463086-15.012571-34.463086-33.952914s16.257829-34.024229 34.463086-34.024229c19.168914 0 33.952914 15.083886 33.952914 34.024229S531.179886 977.325714 512.010971 977.325714zM718.471314 875.077486 305.409829 875.077486 305.409829 113.003886l413.061486 0L718.471314 875.077486z" />

</svg>
