<?xml version="1.0" standalone="no"?><!DOCTYPE svg PUBLIC "-//W3C//DTD SVG 1.1//EN" "http://www.w3.org/Graphics/SVG/1.1/DTD/svg11.dtd"><svg t="1515044926393" class="icon" style="" viewBox="0 0 1024 1024" version="1.1" xmlns="http://www.w3.org/2000/svg" p-id="1212" xmlns:xlink="http://www.w3.org/1999/xlink" width="200" height="200"><defs><style type="text/css"></style></defs><path d="M512 0C229.236364 0 0 229.236364 0 512s229.236364 512 512 512 512-229.236364 512-512S794.763636 0 512 0z m0 995.452121C244.999758 995.452121 28.547879 779.000242 28.547879 512S244.999758 28.563394 512 28.563394 995.452121 244.999758 995.452121 512 779.000242 995.452121 512 995.452121z" fill="rgb(0, 183, 241)" p-id="1213"></path><path d="M753.307152 569.390545l-1.691152-9.324606-1.117091-4.67006-1.132606-4.654546-1.691151-4.654545-1.675637-5.259636-2.249697-5.244122-2.265212-5.259636-3.925333-8.16097-3.382303-7.571394-3.366788-6.423272-2.808243-5.833697-3.382303-5.833697-2.249697-4.670061-5.057939-8.16097-6.749091-9.929697-1.691151-2.901333-0.558546-0.589576v-1.163636l1.132606-3.490909 1.117091-2.916849 1.691152-5.833697 0.57406-3.506424v-2.916848l0.558546-2.327273v-2.901333l-0.558546-2.916849-0.57406-2.916848-0.574061-4.654546-1.117091-4.654545-1.691151-4.670061-1.691152-4.080485-1.691151-3.506424-1.675637-3.490909-1.691151-2.901333-3.382303-5.259637-0.574061-1.737697-0.558545-1.163636-1.132606-9.340121-1.117091-5.833697-0.558546-7.571394-1.691151-7.571394-2.265212-8.750546-1.117091-5.259636-1.132606-4.080485-1.691152-4.654545-1.691151-5.259637-1.691152-5.259636-1.691152-5.244121-4.499393-9.929697-2.249697-4.654546-3.382303-5.244121-2.808243-4.67006-2.761697-5.259637-3.940848-5.259636-3.366788-4.670061-3.940849-4.67006-4.499394-4.654546-3.925333-4.080485-5.057939-4.064969-2.808243-2.342788-2.249697-1.753212-5.616485-4.06497-6.190545-4.080485-6.17503-4.080485-7.307637-3.506424-6.749091-2.916849-6.764606-2.901333-7.307636-2.901333-7.292121-1.753212-7.307637-1.753212-7.881697-1.753213-7.307636-1.768727-7.307636-1.163636-7.866182-0.589576-7.323152-1.163636H515.459879l-7.307637 0.589575-7.292121 1.163637-7.323151 0.589576-7.292122 1.163636-6.74909 1.163636-6.749091 1.753212-6.749091 2.327273-6.749091 2.327273-6.17503 2.342788-6.175031 2.901333-5.632 2.327273-5.616485 3.506424-5.632 3.506424-5.057939 3.506425-5.057939 4.080484-4.499394 3.506425-6.206061 6.407757-5.60097 5.259637-5.057939 5.818181-4.499394 5.833697-4.499394 5.833697-3.925333 5.259637-3.382303 5.833697-2.249697 2.901333-1.691152 2.916848-3.366788 5.259637-2.808242 5.244121-2.265212 5.259636-2.234182 5.259637-2.249697 4.654545-1.691151 4.670061-1.691152 5.244121-1.691152 4.080485-1.675636 8.145454-2.249697 8.176485-0.558545 6.423273-1.132606 5.818182v11.093333l-1.132606 1.753212-1.691152 1.753212-1.117091 2.327273-0.57406 2.342788-1.691152 4.654545-1.117091 4.670061-0.57406 3.506424V428.342303l-3.366788 4.080485-1.691152 4.654545-2.234182 4.080485-1.132606 4.080485-0.558545 3.506424-1.117091 3.459879V460.955152l0.558545 2.342787 1.132606 4.080485 0.558546 2.916849-1.691152 1.163636-4.499394 3.506424-6.190545 5.833697-3.940849 3.506425-3.925333 3.490909-2.808242 2.342788-1.691152 2.327272-4.514909 5.197576-4.499394 4.670061-3.382303 4.654545-3.940848 5.833697-3.925334 5.833697-3.925333 6.423273-3.382303 5.244121-2.808242 6.407758-2.808243 5.833696-1.691151 5.259637-2.234182 5.833697-1.691152 5.833697-1.691151 5.833697-1.675637 5.244121-0.57406 5.259636-0.558546 5.259637-1.132606 4.67006-0.558545 9.324606v12.831031l0.558545 4.080485 0.558546 6.407757 0.558545 3.490909 1.132606 2.932364 0.558546 2.901333 0.558545 1.753212 2.265212 3.490909 0.558546 1.179152 1.132606 1.163636h1.117091l1.132606 0.589576h1.132606l1.691151-0.589576 4.499394-1.163636 3.382303-1.179152 3.366788-2.327272 2.808243-2.342788 3.366787-2.327273 2.808243-2.901333 2.249697-2.916849 2.808242-2.916848 2.265212-2.901334 1.675637-2.916848 1.117091-2.327273 2.808242-5.259636 0.558546-1.753212 0.57406-1.163637 0.558546-1.163636 0.558545-1.163636h0.558546l0.558545-0.589576h0.558545v0.589576h1.117091l1.132606 6.407757 1.691152 5.259637 2.234182 5.259636 2.265212 4.654545 1.675636 4.670061 2.234182 4.654545 2.249697 4.080485 2.249697 4.080485 2.249697 3.506424 2.249697 3.506425 5.073454 6.423272 4.483879 5.244122 4.499394 4.654545 3.940849 4.080485 3.925333 2.916848 5.616485 1.737697 2.265212 1.163637 0.558545 0.589575v0.574061l-0.558545 0.589576-1.132606 0.589576-3.925333 0.589575h-3.940849l-3.382303 0.589576-3.366788 0.589576-3.382303 1.163636-2.808242 1.163637-2.234182 1.163636-2.249697 1.163636-2.249697 0.589576-2.234182 1.753212-1.132606 1.163637-2.249697 1.163636-2.249697 2.916848-1.117091 1.737697-1.132606 1.179152-1.132606 2.901333-0.558545 2.901334-1.132606 2.327272-0.558546 2.342788v4.06497l-0.558545 2.327273v8.750545l0.558545 1.163636 1.691152 3.490909 0.558545 1.753213 0.574061 2.342787 1.691151 1.737697 1.117091 1.163637 1.691152 1.753212 1.132606 1.163636 3.925333 2.327273 3.940849 2.916848 3.925333 2.327273 5.057939 1.753212 5.05794 1.753212 5.057939 1.753213 5.616485 1.737697 5.632 1.179151 6.17503 0.574061 5.632 1.163636 6.749091 1.163636 12.365576 1.163637 12.365576 0.589576h23.055515l5.057939-0.589576 4.514909-0.605091 5.05794-0.589576h3.925333l6.749091-1.753212 5.057939-1.163636 5.05794-1.179152 8.440242-3.490909 3.940849-1.753212 3.925333-1.753212 6.190545-3.506424 5.616485-2.916849 3.925334-2.901333 3.382303-2.342788h4.499394l3.382303 0.589576 7.307636 0.589575h6.17503l2.249697 0.589576 2.249697 0.589576 3.940849 1.163636 3.382303 1.753212 7.866182 2.342788 7.307636 2.901334 7.866182 1.753212 7.307636 1.753212 7.881697 1.753212 7.866182 1.753212 7.866182 0.589576 7.307636 0.589576 7.323152 1.179151 7.307636 0.574061h21.364364l6.74909-1.163637 6.749091-0.589575 6.175031-0.589576 6.190545-1.163637 5.616485-1.753212 5.616485-1.163636 2.249697-0.589576 2.808242-1.163636 5.05794-1.753212 3.925333-2.327273 4.530424-1.737697 3.940849-2.327273 3.382303-2.342788 1.117091-1.753212 1.691151-1.737697 2.249697-2.342788 1.691152-2.901333 1.117091-2.327273 0.57406-1.163636 0.574061-1.753212 0.558545-1.753212v-1.737697l0.574061-1.753212-0.574061-2.342788-0.558545-2.327273-0.574061-2.342788-1.117091-2.327273-1.132606-2.901333-1.675636-1.753212-1.691152-2.342788-2.265212-1.753212-4.499394-4.080485-5.057939-4.06497-5.073455-2.978909-5.616485-2.901333-12.365575-6.423273-2.466909-1.520485 4.15806-4.313212 2.808243-2.901333 2.249697-2.901333 3.940848-5.833697 3.925333-6.423273 3.382303-5.833697 2.808243-5.244121 4.499394-10.488243 3.382303-8.750545 1.691151-5.833697 1.691152-2.342788 0.558545-1.753212 1.132606-0.589576h1.132606l2.808243 6.423273 2.808242 5.833697 2.249697 3.506424 2.265212 3.506424 2.234182 3.490909 2.265212 3.506425 2.249697 2.342788 1.132606 1.163636 1.117091 1.753212 1.691152 0.589576 1.117091 1.163636 2.265212 1.163637 1.675636 0.57406H735.914667l1.691151-0.57406 1.691152-1.163637 1.691151-0.589576 1.691152-1.163636 1.117091-1.753212 1.691151-1.753212 1.132606-1.753212 1.132606-2.327273 1.675637-2.342788 1.132606-2.327273 0.558545-2.932363 1.691152-5.818182 1.691151-6.423273 0.574061-6.997333 0.558545-4.080485v-11.651879l-1.194666-8.160969-1.132606-9.324607z m-83.223273 101.453576l-0.558546-0.589576 0.930909-0.977454-0.372363 1.56703z" fill="rgb(0, 183, 241)" p-id="1214"></path></svg>