<?xml version="1.0" encoding="utf-8"?>
<!DOCTYPE svg PUBLIC "-//W3C//DTD SVG 1.1//EN" "http://www.w3.org/Graphics/SVG/1.1/DTD/svg11.dtd">
<svg style="width:20px;height:20px;" version="1.1" id="图形" xmlns="http://www.w3.org/2000/svg" xmlns:xlink="http://www.w3.org/1999/xlink" x="0px" y="0px" width="20px" height="20px" viewBox="0 0 1024 1024" enable-background="new 0 0 1024 1024" xml:space="preserve">
  <path class="svgpath" data-index="path_0" fill="#a9b7b7" d="M878.82355 144.147004 145.17645 144.147004c-62.862723 0-113.822348 50.995441-113.822348 113.901143l0 507.902682c0 62.905702 50.960649 113.901143 113.822348 113.901143l733.648123 0c62.862723 0 113.822348-50.995441 113.822348-113.901143L992.646921 258.049171C992.646921 195.142445 941.686273 144.147004 878.82355 144.147004zM937.326988 740.630141c0 45.444005-37.124526 82.283028-82.919525 82.283028L169.591513 822.913169c-45.794999 0-82.919525-36.840046-82.919525-82.283028L86.671988 283.368836c0-45.444005 37.124526-82.283028 82.919525-82.283028l684.815951 0c45.794999 0 82.919525 36.840046 82.919525 82.283028L937.326988 740.630141z" />
<path class="svgpath" data-index="path_1" fill="#a9b7b7" d="M709.811228 418.294828 249.458515 418.294828c-14.18814 0-25.691125 11.56029-25.691125 25.821085l0 11.874445c0 14.260795 11.501962 25.821085 25.691125 25.821085l460.352713 0c14.18814 0 25.691125-11.56029 25.691125-25.821085l0-11.874445C735.502353 429.855118 723.999368 418.294828 709.811228 418.294828z" />
<path class="svgpath" data-index="path_2" fill="#a9b7b7" d="M485.692844 566.505381 249.458515 566.505381c-14.18814 0-25.691125 11.56029-25.691125 25.821085l0 11.874445c0 14.260795 11.501962 25.821085 25.691125 25.821085l236.234329 0c14.18814 0 25.691125-11.56029 25.691125-25.821085l0-11.874445C511.38397 578.065671 499.882008 566.505381 485.692844 566.505381z" />

</svg>
